<svg width="50" height="50" viewBox="0 0 50 50" fill="none" xmlns="http://www.w3.org/2000/svg">
<path d="M15.7917 8.50001L12.8125 5.52084C7.81252 9.33334 4.52085 15.2083 4.22919 21.875H8.39585C8.54343 19.2329 9.28508 16.6582 10.5656 14.3425C11.8461 12.0268 13.6325 10.0297 15.7917 8.50001ZM41.6042 21.875H45.7708C45.4583 15.2083 42.1667 9.33334 37.1875 5.52084L34.2292 8.50001C36.3792 10.0372 38.1576 12.0365 39.4338 14.351C40.71 16.6655 41.4516 19.2364 41.6042 21.875ZM37.5 22.9167C37.5 16.5208 34.0834 11.1667 28.125 9.75001V8.33334C28.125 6.60418 26.7292 5.20834 25 5.20834C23.2709 5.20834 21.875 6.60418 21.875 8.33334V9.75001C15.8959 11.1667 12.5 16.5 12.5 22.9167V33.3333L8.33335 37.5V39.5833H41.6667V37.5L37.5 33.3333V22.9167ZM25 45.8333C25.2917 45.8333 25.5625 45.8125 25.8334 45.75C27.1875 45.4583 28.2917 44.5417 28.8334 43.2917C29.0417 42.7917 29.1459 42.25 29.1459 41.6667H20.8125C20.8334 43.9583 22.6875 45.8333 25 45.8333Z" fill="#333333"/>
</svg>
