<svg width="390" height="86" viewBox="0 0 390 86" fill="none" xmlns="http://www.w3.org/2000/svg">
<rect width="390" height="86" fill="#F5F4F4"/>
<path d="M52.5833 53.4167H23.4167C21.1187 53.4167 19.25 55.2854 19.25 57.5833C19.25 59.8812 21.1187 61.75 23.4167 61.75H52.5833C54.8812 61.75 56.75 59.8812 56.75 57.5833C56.75 55.2854 54.8812 53.4167 52.5833 53.4167ZM52.5833 38.8333H23.4167C21.1187 38.8333 19.25 40.7021 19.25 43C19.25 45.2979 21.1187 47.1667 23.4167 47.1667H52.5833C54.8812 47.1667 56.75 45.2979 56.75 43C56.75 40.7021 54.8812 38.8333 52.5833 38.8333ZM52.5833 24.25H23.4167C21.1187 24.25 19.25 26.1187 19.25 28.4167C19.25 30.7146 21.1187 32.5833 23.4167 32.5833H52.5833C54.8812 32.5833 56.75 30.7146 56.75 28.4167C56.75 26.1187 54.8812 24.25 52.5833 24.25Z" fill="#333333"/>
<path d="M283 17C269.192 17 258 28.1925 258 42C258 55.8075 269.192 67 283 67C296.807 67 308 55.8075 308 42C308 28.1925 296.807 17 283 17Z" stroke="black" stroke-width="3" stroke-linecap="round" stroke-linejoin="round"/>
<path d="M263.677 57.865C263.677 57.865 269.25 50.75 283 50.75C296.75 50.75 302.325 57.865 302.325 57.865M283 42C284.989 42 286.897 41.2098 288.303 39.8033C289.71 38.3968 290.5 36.4891 290.5 34.5C290.5 32.5109 289.71 30.6032 288.303 29.1967C286.897 27.7902 284.989 27 283 27C281.011 27 279.103 27.7902 277.697 29.1967C276.29 30.6032 275.5 32.5109 275.5 34.5C275.5 36.4891 276.29 38.3968 277.697 39.8033C279.103 41.2098 281.011 42 283 42Z" stroke="black" stroke-width="3" stroke-linecap="round" stroke-linejoin="round"/>
<rect x="321" y="18" width="50" height="50" rx="20" fill="#22A5EF"/>
<g clip-path="url(#clip0_2_11)">
<path d="M363.862 27.9827C363.95 27.7643 363.971 27.525 363.924 27.2946C363.876 27.0641 363.763 26.8526 363.596 26.6862C363.43 26.5198 363.218 26.406 362.988 26.3587C362.757 26.3114 362.518 26.3328 362.3 26.4202L327.331 40.4082C327.023 40.5315 326.755 40.7373 326.556 41.0031C326.358 41.2689 326.237 41.5842 326.206 41.9145C326.175 42.2448 326.236 42.5772 326.382 42.8751C326.528 43.173 326.753 43.4248 327.033 43.6029L339.04 51.2424L342.72 57.026C342.894 57.2884 343.164 57.4722 343.472 57.5378C343.78 57.6035 344.101 57.5457 344.367 57.3769C344.632 57.2082 344.821 56.9419 344.893 56.6354C344.964 56.3288 344.913 56.0065 344.749 55.7376L341.441 50.5404L359.456 32.526L354.901 43.9154C354.838 44.0626 354.805 44.2208 354.805 44.3808C354.804 44.5407 354.835 44.6992 354.897 44.8469C354.958 44.9946 355.048 45.1285 355.162 45.2409C355.276 45.3533 355.411 45.4419 355.559 45.5014C355.708 45.5609 355.867 45.5902 356.027 45.5875C356.187 45.5848 356.344 45.5503 356.491 45.4859C356.637 45.4214 356.769 45.3284 356.879 45.2123C356.989 45.0962 357.075 44.9593 357.131 44.8097L363.862 27.9827ZM357.756 30.8265L339.742 48.8409L329.312 42.2039L357.756 30.8265Z" fill="white"/>
<path d="M363.949 56.3814C363.949 58.6128 363.062 60.7528 361.485 62.3306C359.907 63.9085 357.767 64.7949 355.535 64.7949C353.304 64.7949 351.164 63.9085 349.586 62.3306C348.008 60.7528 347.122 58.6128 347.122 56.3814C347.122 54.15 348.008 52.01 349.586 50.4322C351.164 48.8544 353.304 47.968 355.535 47.968C357.767 47.968 359.907 48.8544 361.485 50.4322C363.062 52.01 363.949 54.15 363.949 56.3814ZM355.535 51.5737C355.217 51.5737 354.911 51.7004 354.685 51.9258C354.46 52.1512 354.333 52.4569 354.333 52.7756V55.1795H351.93C351.611 55.1795 351.305 55.3061 351.08 55.5315C350.854 55.7569 350.728 56.0626 350.728 56.3814C350.728 56.7002 350.854 57.0059 351.08 57.2313C351.305 57.4567 351.611 57.5833 351.93 57.5833H354.333V59.9872C354.333 60.306 354.46 60.6117 354.685 60.8371C354.911 61.0625 355.217 61.1891 355.535 61.1891C355.854 61.1891 356.16 61.0625 356.385 60.8371C356.611 60.6117 356.737 60.306 356.737 59.9872V57.5833H359.141C359.46 57.5833 359.766 57.4567 359.991 57.2313C360.216 57.0059 360.343 56.7002 360.343 56.3814C360.343 56.0626 360.216 55.7569 359.991 55.5315C359.766 55.3061 359.46 55.1795 359.141 55.1795H356.737V52.7756C356.737 52.4569 356.611 52.1512 356.385 51.9258C356.16 51.7004 355.854 51.5737 355.535 51.5737Z" fill="white"/>
</g>
<defs>
<clipPath id="clip0_2_11">
<rect width="38.4615" height="38.4615" fill="white" transform="translate(325.487 26.3333)"/>
</clipPath>
</defs>
</svg>
