<svg width="40" height="40" viewBox="0 0 40 40" fill="none" xmlns="http://www.w3.org/2000/svg">
<path d="M20 33.3333C20.442 33.3333 20.866 33.1577 21.1785 32.8452C21.4911 32.5326 21.6667 32.1087 21.6667 31.6667C21.6667 31.2246 21.4911 30.8007 21.1785 30.4882C20.866 30.1756 20.442 30 20 30C19.558 30 19.1341 30.1756 18.8215 30.4882C18.5089 30.8007 18.3333 31.2246 18.3333 31.6667C18.3333 32.1087 18.5089 32.5326 18.8215 32.8452C19.1341 33.1577 19.558 33.3333 20 33.3333ZM20 21.6667C20.442 21.6667 20.866 21.4911 21.1785 21.1785C21.4911 20.8659 21.6667 20.442 21.6667 20C21.6667 19.558 21.4911 19.134 21.1785 18.8215C20.866 18.5089 20.442 18.3333 20 18.3333C19.558 18.3333 19.1341 18.5089 18.8215 18.8215C18.5089 19.134 18.3333 19.558 18.3333 20C18.3333 20.442 18.5089 20.8659 18.8215 21.1785C19.1341 21.4911 19.558 21.6667 20 21.6667ZM20 10C20.442 10 20.866 9.8244 21.1785 9.51184C21.4911 9.19928 21.6667 8.77536 21.6667 8.33333C21.6667 7.8913 21.4911 7.46738 21.1785 7.15482C20.866 6.84226 20.442 6.66666 20 6.66666C19.558 6.66666 19.1341 6.84226 18.8215 7.15482C18.5089 7.46738 18.3333 7.8913 18.3333 8.33333C18.3333 8.77536 18.5089 9.19928 18.8215 9.51184C19.1341 9.8244 19.558 10 20 10Z" fill="#333333" stroke="#333333" stroke-width="2" stroke-linecap="round" stroke-linejoin="round"/>
</svg>
